<svg width="60" height="46" viewBox="0 0 60 46" fill="none" xmlns="http://www.w3.org/2000/svg">
<path fill-rule="evenodd" clip-rule="evenodd" d="M0.382745 0.273164C0.102902 0.513867 0.0587219 0.649805 0.011261 1.41727C-0.133466 3.75879 1.12735 5.96613 3.18634 6.9757C4.05552 7.40191 5.62114 7.85473 6.22548 7.85473C6.56321 7.85473 6.5713 7.86785 6.49724 8.29418C6.12048 10.4614 6.05157 11.4116 6.10853 13.6555C6.17017 16.0862 6.30939 17.1245 6.8304 19.037C7.89997 22.9629 9.97935 25.4959 12.4669 25.9032C12.8818 25.9712 17.372 26.0177 23.56 26.0181L33.9558 26.0188L33.9897 32.7864L34.0234 39.5539L34.3532 40.2254C34.7325 40.998 35.3077 41.5212 36.0592 41.7772C36.698 41.9948 39.239 42.024 39.836 41.8205C40.5041 41.5928 41.2088 41.0389 41.5318 40.4877L41.8386 39.9641H46.9252H52.0117L52.0143 41.7512C52.0171 43.7476 52.1438 44.2273 52.868 44.9842C53.5835 45.7321 54.0061 45.8702 55.7265 45.9193C57.6585 45.9743 58.2433 45.8141 59.0486 45.0088C60.0249 44.0324 59.9897 44.4114 59.9535 35.2684L59.9218 27.2493L59.6476 26.7219C59.2814 26.0174 58.9124 25.6444 58.2481 25.3071C57.7753 25.067 57.4893 25.0202 56.2715 24.9836C54.5562 24.9319 53.824 25.1045 53.0885 25.7341C52.1451 26.5417 52.0756 26.7938 52.0326 29.5637L51.9947 31.9954H47.0228H42.0508L42.0512 28.8606L42.0516 25.7258L42.5803 25.5084C42.8712 25.3888 43.4111 25.0564 43.7802 24.7698C46.4296 22.7126 47.9121 18.4759 47.9092 12.9709C47.9058 6.63574 46.0102 2.14066 42.6492 0.497578L41.7578 0.0617579L21.2291 0.0308204L0.700323 0L0.382745 0.273164ZM41.3569 2.11312C41.9761 2.28516 42.9784 3.03141 43.4834 3.69656C44.7856 5.41137 45.6189 7.97145 45.8576 10.9895L45.934 11.9563H35.644H25.354L23.3888 9.9934L21.4235 8.03051L17.5136 7.97191L13.6035 7.91332L13.1391 7.32738C12.4486 6.45645 11.2649 5.39332 10.0364 4.5409C9.04759 3.85477 8.39146 3.4582 6.42575 2.35816L5.78122 1.99758L23.3593 1.99711C34.6514 1.99687 41.0875 2.03836 41.3569 2.11312ZM3.64396 3.22008C4.9854 3.85277 7.09032 4.97484 7.29224 5.16492C7.35353 5.22258 7.33759 5.40727 7.25392 5.6093C7.12114 5.92992 7.07521 5.9509 6.62169 5.89793C5.81661 5.80406 4.639 5.49586 4.15829 5.25328C3.54704 4.94484 2.70165 4.14785 2.44818 3.64125C2.18579 3.11695 2.05407 2.58129 2.18755 2.58129C2.2438 2.58129 2.89911 2.86875 3.64396 3.22008ZM10.1298 7.12617L10.7283 7.61426L10.432 8.5841C10.1671 9.45129 10.1347 9.76477 10.1264 11.5461C10.1162 13.7289 10.2496 14.4956 10.8843 15.9069C11.8419 18.0362 13.121 18.5169 14.3529 17.2104C15.4204 16.0782 16.1763 13.1345 15.9804 10.8723L15.9019 9.9641H16.8421H17.7823L17.8713 10.4036C18.0199 11.137 17.9799 14.7566 17.8113 15.8235C17.0629 20.5613 15.0659 23.9094 12.9883 23.9094C11.3291 23.9094 9.64888 21.7249 8.70693 18.343C7.85392 15.2803 7.85497 10.9642 8.70962 7.68996C9.07056 6.30727 9.08954 6.27047 9.33775 6.47707C9.44415 6.56566 9.80052 6.85781 10.1298 7.12617ZM13.322 9.9641H13.8984L13.9788 10.7149C14.1284 12.1106 13.7759 14.2828 13.2292 15.3356L13.0063 15.7649L12.7119 15.1049C12.1475 13.8397 11.9032 11.7762 12.1256 10.1535C12.1997 9.61301 12.2036 9.60891 12.4731 9.78551C12.6239 9.88441 13.003 9.9641 13.322 9.9641ZM22.5457 11.9563L24.5586 13.9485H35.2464H45.934L45.8586 14.9153C45.7027 16.9167 45.2238 18.9988 44.594 20.4143C43.9358 21.8933 42.7738 23.2276 41.7198 23.7148L41.1718 23.968L28.9551 23.9994C22.2358 24.0166 16.7383 24.0004 16.7383 23.9631C16.7383 23.9258 16.9277 23.6481 17.1594 23.3457C17.6861 22.6586 18.6151 20.747 19.0153 19.5271C19.7039 17.4282 20.0195 15.0689 20.0195 12.0195C20.0195 9.98262 20.0218 9.9641 20.2761 9.9641C20.4513 9.9641 21.1725 10.5971 22.5457 11.9563ZM23.3541 19.2752C22.8742 19.755 22.9746 20.5141 23.5579 20.8157C24.0046 21.0468 24.5385 20.9326 24.7873 20.553C25.4336 19.5664 24.1802 18.4489 23.3541 19.2752ZM27.3384 19.2752C26.8586 19.755 26.959 20.5141 27.5422 20.8157C28.23 21.1714 28.9388 20.7519 28.9608 19.9761C28.9851 19.1215 27.9424 18.6711 27.3384 19.2752ZM31.3452 19.2749C30.6322 19.9356 31.2536 21.1305 32.2017 20.9223C32.9836 20.7505 33.236 19.7831 32.634 19.2653C32.2177 18.9071 31.7383 18.9107 31.3452 19.2749ZM39.9376 32.6692C39.9348 37.7122 39.8994 39.3645 39.7911 39.5055C39.5149 39.8653 39.1313 39.9641 38.0097 39.9641C36.7021 39.9641 36.2823 39.8075 36.0868 39.247C35.9979 38.9919 35.957 36.8488 35.957 32.4466V26.0188H37.9492H39.9414L39.9376 32.6692ZM57.347 27.0963C58.0002 27.394 57.9883 27.2377 57.9883 35.441C57.9883 41.052 57.9522 43.0792 57.8482 43.3072C57.6192 43.8098 57.1927 43.9485 55.8757 43.9485C54.7204 43.9485 54.6799 43.9395 54.3464 43.6059L54.0039 43.2634V35.5123C54.0039 30.4423 54.0455 27.6836 54.124 27.5367C54.3498 27.1148 54.8249 26.9659 55.9613 26.961C56.5584 26.9584 57.1768 27.0188 57.347 27.0963ZM52.0117 35.9797V37.9719H47.0312H42.0508V35.9797V33.9875H47.0312H52.0117V35.9797Z" fill="url(#paint0_linear_1115_274)"/>
<defs>
<linearGradient id="paint0_linear_1115_274" x1="0" y1="0" x2="47.8055" y2="56.312" gradientUnits="userSpaceOnUse">
<stop stop-color="#594372"/>
<stop offset="1" stop-color="#7A5B9E"/>
</linearGradient>
</defs>
</svg>
