<svg width="60" height="54" viewBox="0 0 60 54" fill="none" xmlns="http://www.w3.org/2000/svg">
<path fill-rule="evenodd" clip-rule="evenodd" d="M16.6514 0.303516C15.9026 0.676641 15.3882 1.27863 15.1582 2.05078C15.0491 2.41734 14.3196 3.63504 13.2102 5.30273L11.4367 7.96875L8.78847 7.97051C5.84612 7.97238 5.18565 8.06906 3.92847 8.68207C2.20874 9.52066 1.08913 10.8165 0.294716 12.888L0.0465125 13.5352L0.0149891 31.5121C-0.0198156 51.3831 -0.0603625 50.2359 0.724677 51.5463C1.21358 52.3622 1.9685 53.029 2.91761 53.4832L3.67932 53.8477L29.7493 53.878C58.8624 53.9119 56.3981 53.9841 57.7785 53.0563C58.6234 52.4885 59.2851 51.6773 59.6665 50.7422L59.9293 50.0977L59.9621 32.2266C59.9985 12.4199 60.0383 13.5315 59.2336 11.8826C58.5559 10.4939 57.4253 9.35168 56.0662 8.68266C54.8331 8.07551 54.1263 7.97238 51.1861 7.97051L48.5365 7.96875L46.7201 5.23277C45.6935 3.68672 44.8697 2.32336 44.8257 2.09801C44.7007 1.45781 44.0331 0.656601 43.3344 0.308555L42.7153 0H29.9879H17.2605L16.6514 0.303516ZM42.6412 2.22363C43.1531 2.73551 43.0396 3.51398 42.4063 3.83449C41.9838 4.04824 17.992 4.04824 17.5696 3.83449C16.9363 3.51398 16.8227 2.73551 17.3346 2.22363C17.5622 1.99605 17.7756 1.99219 29.9879 1.99219C42.2003 1.99219 42.4137 1.99605 42.6412 2.22363ZM17.1692 5.81063C17.6294 5.94914 19.7458 5.97656 29.9879 5.97656C43.2871 5.97656 42.8993 5.99449 43.7585 5.33918L44.1593 5.03356L45.1009 6.4391C45.6189 7.21219 46.0426 7.87254 46.0426 7.90676C46.0426 7.94086 38.818 7.96875 29.9879 7.96875C21.1578 7.96875 13.9332 7.94086 13.9332 7.90676C13.9332 7.87254 14.357 7.21219 14.875 6.4391L15.8166 5.03356L16.2173 5.33918C16.4376 5.50723 16.8661 5.71945 17.1692 5.81063ZM54.3814 10.159L54.6929 10.2984L54.3814 11.0379L54.07 11.7773L54.0081 21.6211C53.9741 27.0352 53.9345 31.4788 53.9202 31.4959C53.9059 31.5129 53.7228 31.6314 53.5133 31.7591C53.1424 31.9853 52.8981 31.9914 44.1844 31.9917C35.7104 31.9922 35.2405 31.9813 35.315 31.7871C35.8521 30.3889 36.0974 28.1823 35.8544 26.9333C35.3825 24.5067 33.2668 22.446 30.8245 22.0339C27.8065 21.5249 24.7228 23.7237 24.122 26.8131C23.8704 28.1072 24.1151 30.3663 24.6608 31.7871C24.7353 31.9813 24.2665 31.9922 15.8149 31.9922C6.08272 31.9922 6.33315 32.0091 6.07663 31.3344C6.00866 31.1557 5.96331 27.3132 5.96143 21.5842L5.95839 12.1289L5.66882 11.3086C5.50956 10.8574 5.36589 10.4396 5.3496 10.3802C5.2419 9.98754 5.89768 9.97746 30.1637 9.99867C48.3575 10.0145 54.1444 10.0528 54.3814 10.159ZM3.78374 11.9555C3.95155 12.3748 3.97229 13.4632 3.97229 21.8366C3.97229 32.5787 3.93081 32.079 4.90417 33.0525C5.878 34.0262 5.37292 33.9844 16.1625 33.9844H25.6148L25.7446 34.4238C25.8159 34.6656 25.91 35.1395 25.9537 35.4771C26.0299 36.0641 26.0151 36.1111 25.6161 36.5528C25.0897 37.1354 24.9501 37.6409 24.9501 38.9648C24.9501 40.2851 25.1018 40.8404 25.5976 41.3363L25.9877 41.7264L26.025 44.3886L26.0621 47.0508L26.4641 47.7921C26.9065 48.6081 27.5008 49.1808 28.3314 49.5912C29.1176 49.9796 30.8583 49.9796 31.6445 49.5912C32.475 49.1808 33.0694 48.6081 33.5117 47.7921L33.9137 47.0508L33.9508 44.3886L33.9881 41.7264L34.3782 41.3363C34.8741 40.8404 35.0257 40.2851 35.0257 38.9648C35.0257 37.6409 34.8861 37.1354 34.3597 36.5528C33.9607 36.1111 33.9459 36.0641 34.0221 35.4771C34.0658 35.1395 34.1599 34.6656 34.2313 34.4238L34.361 33.9844H43.8133C54.6029 33.9844 54.0978 34.0262 55.0717 33.0525C56.045 32.079 56.0035 32.5787 56.0035 21.8366C56.0035 13.4234 56.0237 12.3762 56.194 11.9507C56.2987 11.6889 56.4438 11.4941 56.5162 11.518C56.7587 11.5977 57.3872 12.5241 57.6636 13.2091L57.9371 13.8867L57.9733 31.4648C57.9988 43.875 57.9718 49.2152 57.8814 49.6289C57.7007 50.4548 57.098 51.229 56.3422 51.6055L55.7231 51.9141H29.9879H4.25272L3.64628 51.6118C2.9305 51.2552 2.37034 50.5951 2.14347 49.8414C2.00694 49.388 1.98011 46.435 1.98011 31.881C1.98011 13.1692 1.95972 13.8448 2.55983 12.6683C2.81694 12.1644 3.35765 11.4844 3.5012 11.4844C3.553 11.4844 3.68015 11.6964 3.78374 11.9555ZM31.3592 24.2781C32.7467 24.7941 33.8317 26.3058 33.9443 27.8801C33.9934 28.5661 33.819 30.0947 33.6595 30.3765C33.6335 30.4225 33.42 30.2473 33.185 29.9872C32.389 29.1061 32.0569 29.0039 29.9879 29.0039C27.9201 29.0039 27.5866 29.1062 26.7933 29.9844L26.3686 30.4545L26.2173 30.0221C26.1281 29.7673 26.0652 29.0367 26.064 28.2422C26.0623 27.0047 26.0887 26.8405 26.3867 26.2334C26.9313 25.1245 28.1058 24.2256 29.2754 24.0221C29.9401 23.9066 30.5675 23.9837 31.3592 24.2781ZM31.6376 31.28L31.9801 31.6226V33.7996V35.9766H29.9879H27.9957V33.7996V31.6226L28.3383 31.28C28.6759 30.9424 28.6994 30.9375 29.9879 30.9375C31.2764 30.9375 31.2999 30.9424 31.6376 31.28ZM33.0348 38.9648V39.9609H29.9879H26.941V38.9648V37.9688H29.9879H33.0348V38.9648ZM31.9801 44.1548C31.9801 46.2053 31.9619 46.3925 31.7164 46.879C31.0113 48.2761 28.9645 48.2761 28.2594 46.879C28.0139 46.3925 27.9957 46.2053 27.9957 44.1548V41.9531H29.9879H31.9801V44.1548ZM4.56175 48.0796C3.9178 48.4055 3.81339 49.1868 4.34741 49.6842C4.57382 49.8953 4.75804 49.9219 5.9919 49.9219C7.31085 49.9219 7.39593 49.9072 7.66897 49.6342C8.15261 49.1507 8.02675 48.3957 7.40776 48.066C7.06101 47.8814 4.93347 47.8915 4.56175 48.0796ZM10.5371 48.0802C9.92577 48.3895 9.82932 49.1223 10.3295 49.6582L10.5757 49.9219H16.9785C23.2483 49.9219 23.3865 49.917 23.6362 49.6842C24.1515 49.2042 24.0451 48.3948 23.4254 48.0813C23.0026 47.8675 10.9597 47.8664 10.5371 48.0802ZM36.5504 48.0813C35.9307 48.3948 35.8243 49.2042 36.3396 49.6842C36.5893 49.917 36.7275 49.9219 42.9974 49.9219H49.4001L49.6416 49.6582C49.7742 49.5131 49.918 49.2785 49.961 49.1367C50.0664 48.7889 49.7385 48.1822 49.3692 48.0418C48.8937 47.861 36.913 47.8979 36.5504 48.0813ZM52.5465 48.0713C51.9456 48.4158 51.8317 49.1591 52.3069 49.6342C52.5799 49.9072 52.665 49.9219 53.9839 49.9219C55.2178 49.9219 55.402 49.8953 55.6284 49.6842C56.1625 49.1868 56.058 48.4055 55.4141 48.0796C55.0452 47.8929 52.8684 47.8866 52.5465 48.0713Z" fill="url(#paint0_linear_1115_266)"/>
<defs>
<linearGradient id="paint0_linear_1115_266" x1="0" y1="0" x2="56.8502" y2="57.0784" gradientUnits="userSpaceOnUse">
<stop stop-color="#594372"/>
<stop offset="1" stop-color="#7A5B9E"/>
</linearGradient>
</defs>
</svg>
